# generated from PmQm by Jehee Lee
:FULLY-SPECIFIED
:DEGREES
504
root -22.1251 38.1414 -6.78938 175.618 39.4399 175.163
RightUpLeg -20.1582 10.9046 -8.15511
RightLeg 53.4612 -1.79449 -2.97186
RightFoot -5.3761 -0.006299200003 -0.590904
RightToes -0.000541893 -0.000659172 -0.000493268
Spine 1.57025 -1.06264 -1.45028
Spine1 3.00474 -2.38357 1.15597
HEad 29.8343 -2.3153 -8.60577
LeftShoulder1 -3.88251e-019 -0 -3.92111e-022
LeftArm -34.7267 2.40456 -82.7142
LeftForeArm 33.9684 1.95868 1.17406
LeftHand -0.745642 -4.3088 9.19633
RightShoulder 7.45443e-017 -2.42657e-020 1.96277e-018
RightArm -31.9641 -21.5806 71.0112
RightForeArm 13.7048 1.22453 0.788834
RightHand -1.26958 10 -9.9305
LeftUpLeg -10.5599 -2.95589 -10.1693
LeftLeg 17.1094 4.35907 1.41251
LeftFoot -7.02636 -0.315514 9.48376
LeftToes 3.91355e-005 3.11907e-005 -4.10385e-006
505
root -21.7712 38.2064 -7.45865 177.053 38.0942 175.875
RightUpLeg -24.3234 14.4242 -7.57148
RightLeg 47.3153 0.661476 0.44322
RightFoot -6.32272 0.027104 -1.5955
RightToes -0.000541893 -0.000659172 -0.000493268
Spine 1.14993 -1.55555 -1.03313
Spine1 2.27232 -3.08591 1.36269
HEad 29.9752 -2.99065 -8.39698
LeftShoulder1 -3.88251e-019 -0 -3.92111e-022
LeftArm -33.9 1.36837 -82.9939
LeftForeArm 33.3583 1.9875 0.094359
LeftHand -0.741069 -4.44663 9.0221
RightShoulder 7.45443e-017 -2.42657e-020 1.96277e-018
RightArm -33.2798 -22.5717 71.5611
RightForeArm 7.10046 -0.676992 -0.548266
RightHand -1.44164 10.7529 -10.7182
LeftUpLeg -10.266 -3.76722 -10.1826
LeftLeg 17.1817 3.87279 1.52883
LeftFoot -8.14492 -0.234031 10.1212
LeftToes 3.91355e-005 3.11907e-005 -4.10385e-006
506
root -21.4316 38.2547 -8.12718 178.672 36.9697 176.374
RightUpLeg -27.9286 16.581 -7.46869
RightLeg 39.1691 4.07002 3.27651
RightFoot -4.89528 0.114546 -2.59677
RightToes -0.000541893 -0.000659172 -0.000493268
Spine 0.677945 -1.88042 -0.552039
Spine1 1.40283 -3.5488 1.34256
HEad 29.3533 -3.74073 -7.98199
LeftShoulder1 -3.88251e-019 -0 -3.92111e-022
LeftArm -33.0381 0.642817 -83.2766
LeftForeArm 33.3541 0.733018 -1.02484
LeftHand -0.764156 -4.56833 9.18658
RightShoulder 7.45443e-017 -2.42657e-020 1.96277e-018
RightArm -34.4412 -22.9521 72.2738
RightForeArm 3.02599 -2.30944 -2.04283
RightHand -1.52469 11.0432 -11.1196
LeftUpLeg -10.2169 -3.80478 -10.0901
LeftLeg 16.9258 2.72556 1.14461
LeftFoot -9.10839 -0.154029 10.6957
LeftToes 3.91355e-005 3.11907e-005 -4.10385e-006
507
root -21.1123 38.2648 -8.76285 -179.801 35.5937 176.654
RightUpLeg -30.0999 17.0585 -7.53634
RightLeg 28.8767 6.3329 3.84428
RightFoot 0.0205202 0.119463 -1.29874
RightToes -0.000541893 -0.000659172 -0.000493268
Spine 0.305939 -2.17505 0.0289324
Spine1 0.663247 -4.14398 1.251
HEad 28.3651 -4.51061 -7.63982
LeftShoulder1 -3.88251e-019 -0 -3.92111e-022
LeftArm -32.3199 -0.218121 -83.784
LeftForeArm 34.3076 -1.6333 -2.20213
LeftHand -0.797097 -4.60724 9.53367
RightShoulder 7.45443e-017 -2.42657e-020 1.96277e-018
RightArm -34.8954 -22.9988 72.473
RightForeArm 2.57191 -2.43897 -2.61167
RightHand -1.46323 10.5929 -10.9743
LeftUpLeg -10.3179 -3.23179 -10.0574
LeftLeg 16.7617 0.834462 0.47405
LeftFoot -9.99618 -0.0730776 11.3208
LeftToes 3.91355e-005 3.11907e-005 -4.10385e-006
508
root -20.794 38.2686 -9.40723 -178.794 34.4189 176.852
RightUpLeg -29.3284 11.7053 -4.0224
RightLeg 16.443 11.1617 1.09348
RightFoot 7.79372 -0.410581 2.62413
RightToes -0.000541893 -0.000659172 -0.000493268
Spine 0.246507 -2.26393 0.713601
Spine1 0.477009 -4.52514 1.19593
HEad 26.9993 -5.42834 -7.35422
LeftShoulder1 -3.88251e-019 -0 -3.92111e-022
LeftArm -31.5967 -1.46507 -84.6902
LeftForeArm 35.4229 -2.39097 -3.01408
LeftHand -0.817759 -4.68235 9.70359
RightShoulder 7.45443e-017 -2.42657e-020 1.96277e-018
RightArm -34.7157 -23.0117 72.0942
RightForeArm 3.36545 -2.39521 -2.41962
RightHand -1.44565 10.2391 -11.08
LeftUpLeg -9.83959 -2.90811 -10.0983
LeftLeg 16.4722 -0.655301 0.007273770005
LeftFoot -10.7886 0.00918854001 11.5178
LeftToes 3.91355e-005 3.11907e-005 -4.10385e-006
509
root -20.4055 38.205 -10.1633 -178.542 33.8387 176.727
RightUpLeg -27.6167 3.76119 0.833773
RightLeg 5.52851 15.2371 -1.62066
RightFoot 11.5183 -1.15389 6.07252
RightToes -0.000541893 -0.000659172 -0.000493268
Spine 0.361857 -2.08245 1.06475
Spine1 0.633723 -4.34825 0.911119
HEad 25.4947 -6.45516 -6.81187
LeftShoulder1 -3.88251e-019 -0 -3.92111e-022
LeftArm -30.7199 -2.78601 -85.9135
LeftForeArm 36.6581 -1.70197 -3.23266
LeftHand -0.812821 -4.8411 9.50649
RightShoulder 7.45443e-017 -2.42657e-020 1.96277e-018
RightArm -34.3468 -23.0118 71.4825
RightForeArm 5.52177 -2.11482 -2.27957
RightHand -1.44188 10.2491 -11.0454
LeftUpLeg -8.64 -2.82715 -10.4607
LeftLeg 16.4036 -1.22223 -0.151363
LeftFoot -12.0651 0.145686 11.5096
LeftToes 3.91355e-005 3.11907e-005 -4.10385e-006
510
root -19.903 38.0183 -11.0625 -178.767 33.3363 176.008
RightUpLeg -28.2714 2.86313 1.33324
RightLeg 3.10891 10.8842 -1.22466
RightFoot 6.0705 -1.22644 8.26843
RightToes -0.000541893 -0.000659172 -0.000493268
Spine 0.321178 -1.96163 0.784488
Spine1 0.542933 -4.11471 0.262618
HEad 24.5613 -7.11705 -6.12011
LeftShoulder1 -3.88251e-019 -0 -3.92111e-022
LeftArm -30.1176 -3.46308 -87.0528
LeftForeArm 38.6202 -0.235927 -3.10708
LeftHand -0.780614 -5.02268 8.99361
RightShoulder 7.45443e-017 -2.42657e-020 1.96277e-018
RightArm -33.6629 -22.8677 70.6865
RightForeArm 10.8826 -1.62415 -1.9717
RightHand -1.39018 10.44 -10.545
LeftUpLeg -7.33386 -2.3803 -11.325
LeftLeg 17.0989 -1.77529 -0.323276
LeftFoot -14.0903 0.363882 11.5808
LeftToes 3.91355e-005 3.11907e-005 -4.10385e-006
511
root -19.3727 37.9302 -12.0259 -178.648 32.7675 175.753
RightUpLeg -27.5076 3.02732 1.71131
RightLeg 1.84461 7.96387 -1.35533
RightFoot 2.91439 -1.10728 8.98833
RightToes -0.000541893 -0.000659172 -0.000493268
Spine 0.24308 -2.02598 0.65285
Spine1 0.379301 -4.23148 -0.007830310006
HEad 24.2144 -7.06212 -5.58727
LeftShoulder1 -3.88251e-019 -0 -3.92111e-022
LeftArm -30.1769 -2.84282 -87.7141
LeftForeArm 40.8882 0.831234 -3.05412
LeftHand -0.755517 -4.9634 8.7624
RightShoulder 7.45443e-017 -2.42657e-020 1.96277e-018
RightArm -32.3892 -22.7125 69.7981
RightForeArm 18.0117 -1.20501 -0.774519
RightHand -1.4742 10.8015 -10.9172
LeftUpLeg -5.53017 -2.01454 -11.6541
LeftLeg 16.8196 -2.59392 -0.617926
LeftFoot -15.5294 0.500308 11.0891
LeftToes 3.91355e-005 3.11907e-005 -4.10385e-006
512
root -18.7932 37.9184 -13.1019 -178.414 32.0933 175.998
RightUpLeg -25.7912 3.35751 2.2372
RightLeg 1.42037 7.5124 -1.77796
RightFoot 7.72128 -1.04365 6.63174
RightToes -0.000541893 -0.000659172 -0.000493268
Spine 0.19524 -2.22901 0.675634
Spine1 0.282673 -4.59668 0.137889
HEad 23.7466 -6.64461 -5.33882
LeftShoulder1 -3.88251e-019 -0 -3.92111e-022
LeftArm -30.7018 -1.09384 -88.0324
LeftForeArm 42.1581 1.64051 -2.96033
LeftHand -0.749613 -4.6224 8.97328
RightShoulder 7.45443e-017 -2.42657e-020 1.96277e-018
RightArm -31.1334 -23.1349 69.2185
RightForeArm 22.7548 -0.283209 0.992204
RightHand -1.57542 10.8521 -11.6033
LeftUpLeg -2.71351 -2.22963 -11.496
LeftLeg 15.2632 -3.19591 -0.873452
LeftFoot -16.6178 0.57237 10.2189
LeftToes 3.91355e-005 3.11907e-005 -4.10385e-006
513
root -18.164 37.9778 -14.2734 -177.717 31.5892 177.385
RightUpLeg -24.0194 4.12356 3.4259
RightLeg 1.68533 7.9211 -1.93861
RightFoot 13.8458 -0.640914 3.31706
RightToes -0.000541893 -0.000659172 -0.000493268
Spine 0.157022 -2.29153 1.1618
Spine1 0.187425 -4.68405 1.22609
HEad 23.078 -6.2827 -5.6754
LeftShoulder1 -3.88251e-019 -0 -3.92111e-022
LeftArm -31.6303 0.556605 -88.4574
LeftForeArm 42.8203 2.16513 -2.38529
LeftHand -0.698838 -4.478 8.50199
RightShoulder 7.45443e-017 -2.42657e-020 1.96277e-018
RightArm -30.7519 -24.2245 69.0438
RightForeArm 23.4652 0.788461 2.18643
RightHand -1.4522 10.4741 -10.9694
LeftUpLeg 0.69417 -2.38129 -10.2931
LeftLeg 13.0526 -3.43442 -0.955704
LeftFoot -17.6609 0.630599 9.47894
LeftToes 3.91355e-005 3.11907e-005 -4.10385e-006
514
root -17.5117 38.1408 -15.4345 -176.419 31.2499 179.776
RightUpLeg -22.4588 5.34063 5.27614
RightLeg 2.57908 6.95613 -1.84055
RightFoot 14.19 -0.132246 1.01155
RightToes -0.000541893 -0.000659172 -0.000493268
Spine 0.0409173 -2.23826 2.13334
Spine1 -0.0811229 -4.53239 3.20588
HEad 22.8358 -5.76949 -6.67911
LeftShoulder1 -3.88251e-019 -0 -3.92111e-022
LeftArm -33.0853 1.33264 -88.9254
LeftForeArm 44.8562 1.87257 -0.888155
LeftHand -0.564808 -4.53905 6.89122
RightShoulder 7.45443e-017 -2.42657e-020 1.96277e-018
RightArm -31.0351 -24.9917 69.0783
RightForeArm 22.4165 0.986489 2.31369
RightHand -1.2533 10.2109 -9.6824
LeftUpLeg 3.25788 -1.70013 -7.97826
LeftLeg 12.1786 -4.43746 -1.09384
LeftFoot -17.8651 0.588753 8.43742
LeftToes 3.91355e-005 3.11907e-005 -4.10385e-006
515
root -16.8535 38.3723 -16.5147 -175.345 30.5125 -178.277
RightUpLeg -20.8459 5.97763 6.69408
RightLeg 3.66512 5.39939 -1.45614
RightFoot 11.2022 0.124827 -0.238169
RightToes -0.000541893 -0.000659172 -0.000493268
Spine -0.106328 -2.34661 3.06625
Spine1 -0.426947 -4.69999 4.89477
HEad 23.1352 -5.23098 -7.4062
LeftShoulder1 -3.88251e-019 -0 -3.92111e-022
LeftArm -34.3373 1.76839 -88.8743
LeftForeArm 47.8319 1.51596 1.42239
LeftHand -0.423464 -4.16581 5.4217
RightShoulder 7.45443e-017 -2.42657e-020 1.96277e-018
RightArm -31.4953 -24.9314 69.5552
RightForeArm 21.2685 0.493194 1.8216
RightHand -1.10665 10.1046 -8.65695
LeftUpLeg 4.22823 -0.361238 -5.55188
LeftLeg 14.0653 -6.91979 -1.83508
LeftFoot -16.5729 0.424783 7.10521
LeftToes 3.91355e-005 3.11907e-005 -4.10385e-006
